<mxfile host="app.diagrams.net" modified="2022-10-20T09:24:08.338Z" agent="5.0 (Macintosh; Intel Mac OS X 10_15_7) AppleWebKit/537.36 (KHTML, like Gecko) Chrome/106.0.0.0 Safari/537.36" etag="N1xmv3Pp52wm77j914eU" version="20.4.2" type="github">
  <diagram id="3228e29e-7158-1315-38df-8450db1d8a1d" name="Page-1">
    <mxGraphModel dx="2400" dy="3260" grid="0" gridSize="10" guides="1" tooltips="1" connect="1" arrows="1" fold="1" page="1" pageScale="1" pageWidth="850" pageHeight="210" background="#EFF1F3" math="0" shadow="0">
      <root>
        <mxCell id="0" />
        <mxCell id="1" parent="0" />
        <mxCell id="A4_kuBogsplU2x2x7XkE-1" value="" style="rounded=1;whiteSpace=wrap;html=1;strokeColor=#000000;fillColor=none;dashed=1;strokeWidth=5;arcSize=8;" vertex="1" parent="1">
          <mxGeometry x="40" y="-106" width="460" height="450" as="geometry" />
        </mxCell>
        <mxCell id="A4_kuBogsplU2x2x7XkE-2" value="" style="rounded=1;whiteSpace=wrap;html=1;fillColor=none;dashed=1;strokeWidth=5;" vertex="1" parent="1">
          <mxGeometry x="1149" y="-100" width="481" height="450" as="geometry" />
        </mxCell>
        <mxCell id="A4_kuBogsplU2x2x7XkE-3" value="" style="shape=image;verticalLabelPosition=bottom;verticalAlign=top;imageAspect=0;aspect=fixed;image=data:image/svg+xml,PHN2ZyB4bWxuczp4bGluaz0iaHR0cDovL3d3dy53My5vcmcvMTk5OS94bGluayIgeG1sbnM9Imh0dHA6Ly93d3cudzMub3JnLzIwMDAvc3ZnIiBoZWlnaHQ9IjIwMCIgd2lkdGg9IjIwMCIgdmVyc2lvbj0iMS4xIiB2aWV3Qm94PSIwIDAgMTAyNCAxMDI0IiBjbGFzcz0iaWNvbiI+PGRlZnM+PHN0eWxlIHR5cGU9InRleHQvY3NzIj5AZm9udC1mYWNlIHsgZm9udC1mYW1pbHk6IGZlZWRiYWNrLWljb25mb250OyBzcmM6IHVybCgiLy9hdC5hbGljZG4uY29tL3QvZm9udF8xMDMxMTU4X3U2OXc4eWh4ZHUud29mZjI/dD0xNjMwMDMzNzU5OTQ0IikgZm9ybWF0KCJ3b2ZmMiIpLCB1cmwoIi8vYXQuYWxpY2RuLmNvbS90L2ZvbnRfMTAzMTE1OF91Njl3OHloeGR1LndvZmY/dD0xNjMwMDMzNzU5OTQ0IikgZm9ybWF0KCJ3b2ZmIiksIHVybCgiLy9hdC5hbGljZG4uY29tL3QvZm9udF8xMDMxMTU4X3U2OXc4eWh4ZHUudHRmP3Q9MTYzMDAzMzc1OTk0NCIpIGZvcm1hdCgidHJ1ZXR5cGUiKTsgfSYjeGE7PC9zdHlsZT48L2RlZnM+PHBhdGggZmlsbD0iIzRBOTE5QiIgZD0iTTg0Mi4zOTQ1OTUgNzk5LjczMzIzNyA2NDAuOTczMDc2IDc5OS43MzMyMzcgNjQwLjk3MzA3NiA5MTQuODI1NTA4bDU3LjU0OTAwNSAwYzE1LjkwMzg1MyAwIDI4Ljc3NDUwMyAxMi44NjkwOTkgMjguNzc0NTAzIDI4Ljc3MzMyNCAwIDE1LjkwMzIwMi0xMi44NzA2NDkgMjguNzcyMy0yOC43NzQ1MDMgMjguNzcyM0wzNTMuMjI4MDUgOTcyLjM3MTEzMmMtMTUuOTA0ODc3IDAtMjguNzc0NTAzLTEyLjg2OTA5OS0yOC43NzQ1MDMtMjguNzcyMyAwLTE1LjkwNDIyNSAxMi44Njk2MjYtMjguNzczMzI0IDI4Ljc3NDUwMy0yOC43NzMzMjRsNTcuNTQ5MDA1IDBMNDEwLjc3NzA1NSA3OTkuNzMzMjM3IDE4MC41ODEwMzQgNzk5LjczMzIzN2MtNjMuNTYyMTk5IDAtMTE1LjA5ODAxMS01MS41MzM3LTExNS4wOTgwMTEtMTE1LjA5MzI5NUw2NS40ODMwMjMgMTY2LjcyMDExNmMwLTYzLjU1OTU5NSA1MS41MzU4MTItMTE1LjA5MzI5NSAxMTUuMDk4MDExLTExNS4wOTMyOTVsNjYxLjgxMjUzNyAwYzYzLjU2MTE3NiAwIDExNS4wOTgwMTEgNTEuNTMzNyAxMTUuMDk4MDExIDExNS4wOTMyOTVsMCA1MTcuOTE5ODI2Qzk1Ny40OTE1ODIgNzQ4LjE5ODUxMyA5MDUuOTU1NzcgNzk5LjczMzIzNyA4NDIuMzk0NTk1IDc5OS43MzMyMzd6TTU4My40MjQwNzEgOTE0LjgyNTUwOCA1ODMuNDI0MDcxIDc5OS43MzMyMzcgNDY4LjMyNjA2IDc5OS43MzMyMzcgNDY4LjMyNjA2IDkxNC44MjU1MDggNTgzLjQyNDA3MSA5MTQuODI1NTA4ek04OTkuOTQyNTc3IDE2Ni43MjAxMTZjMC0zMS43Nzk3OTctMjUuNzY3OTA2LTU3LjU0NjY0Ny01Ny41NDc5ODItNTcuNTQ2NjQ3TDE4MC41ODEwMzQgMTA5LjE3MzQ2OGMtMzEuNzgxMDk5IDAtNTcuNTQ5MDA1IDI1Ljc2Njg1LTU3LjU0OTAwNSA1Ny41NDY2NDdsMCA0MDIuODI2NTMyTDg5OS45NDI1NzcgNTY5LjU0NjY0NyA4OTkuOTQyNTc3IDE2Ni43MjAxMTZ6TTg5OS45NDI1NzcgNjI3LjA5MzI5NSAxMjMuMDMzMDUyIDYyNy4wOTMyOTVsMCA1Ny41NDY2NDdjMCAzMS43Nzk3OTcgMjUuNzY3OTA2IDU3LjU0NTYyNCA1Ny41NDkwMDUgNTcuNTQ1NjI0bDY2MS44MTI1MzcgMGMzMS43ODEwOTkgMCA1Ny41NDc5ODItMjUuNzY2ODUgNTcuNTQ3OTgyLTU3LjU0NTYyNEw4OTkuOTQyNTc3IDYyNy4wOTMyOTV6Ii8+PC9zdmc+" vertex="1" parent="1">
          <mxGeometry x="1373.83" y="152" width="127" height="127" as="geometry" />
        </mxCell>
        <mxCell id="A4_kuBogsplU2x2x7XkE-4" value="" style="shape=image;verticalLabelPosition=bottom;verticalAlign=top;imageAspect=0;aspect=fixed;image=data:image/svg+xml,PHN2ZyB4bWxuczp4bGluaz0iaHR0cDovL3d3dy53My5vcmcvMTk5OS94bGluayIgeG1sbnM9Imh0dHA6Ly93d3cudzMub3JnLzIwMDAvc3ZnIiBoZWlnaHQ9IjIwMCIgd2lkdGg9IjIwMCIgdmVyc2lvbj0iMS4xIiB2aWV3Qm94PSIwIDAgMTAyNCAxMDI0IiBjbGFzcz0iaWNvbiI+PGRlZnM+PHN0eWxlIHR5cGU9InRleHQvY3NzIj5AZm9udC1mYWNlIHsgZm9udC1mYW1pbHk6IGZlZWRiYWNrLWljb25mb250OyBzcmM6IHVybCgiLy9hdC5hbGljZG4uY29tL3QvZm9udF8xMDMxMTU4X3U2OXc4eWh4ZHUud29mZjI/dD0xNjMwMDMzNzU5OTQ0IikgZm9ybWF0KCJ3b2ZmMiIpLCB1cmwoIi8vYXQuYWxpY2RuLmNvbS90L2ZvbnRfMTAzMTE1OF91Njl3OHloeGR1LndvZmY/dD0xNjMwMDMzNzU5OTQ0IikgZm9ybWF0KCJ3b2ZmIiksIHVybCgiLy9hdC5hbGljZG4uY29tL3QvZm9udF8xMDMxMTU4X3U2OXc4eWh4ZHUudHRmP3Q9MTYzMDAzMzc1OTk0NCIpIGZvcm1hdCgidHJ1ZXR5cGUiKTsgfSYjeGE7PC9zdHlsZT48L2RlZnM+PHBhdGggZmlsbD0iIzRBOTE5QiIgZD0iTTg0Mi4zOTQ1OTUgNzk5LjczMzIzNyA2NDAuOTczMDc2IDc5OS43MzMyMzcgNjQwLjk3MzA3NiA5MTQuODI1NTA4bDU3LjU0OTAwNSAwYzE1LjkwMzg1MyAwIDI4Ljc3NDUwMyAxMi44NjkwOTkgMjguNzc0NTAzIDI4Ljc3MzMyNCAwIDE1LjkwMzIwMi0xMi44NzA2NDkgMjguNzcyMy0yOC43NzQ1MDMgMjguNzcyM0wzNTMuMjI4MDUgOTcyLjM3MTEzMmMtMTUuOTA0ODc3IDAtMjguNzc0NTAzLTEyLjg2OTA5OS0yOC43NzQ1MDMtMjguNzcyMyAwLTE1LjkwNDIyNSAxMi44Njk2MjYtMjguNzczMzI0IDI4Ljc3NDUwMy0yOC43NzMzMjRsNTcuNTQ5MDA1IDBMNDEwLjc3NzA1NSA3OTkuNzMzMjM3IDE4MC41ODEwMzQgNzk5LjczMzIzN2MtNjMuNTYyMTk5IDAtMTE1LjA5ODAxMS01MS41MzM3LTExNS4wOTgwMTEtMTE1LjA5MzI5NUw2NS40ODMwMjMgMTY2LjcyMDExNmMwLTYzLjU1OTU5NSA1MS41MzU4MTItMTE1LjA5MzI5NSAxMTUuMDk4MDExLTExNS4wOTMyOTVsNjYxLjgxMjUzNyAwYzYzLjU2MTE3NiAwIDExNS4wOTgwMTEgNTEuNTMzNyAxMTUuMDk4MDExIDExNS4wOTMyOTVsMCA1MTcuOTE5ODI2Qzk1Ny40OTE1ODIgNzQ4LjE5ODUxMyA5MDUuOTU1NzcgNzk5LjczMzIzNyA4NDIuMzk0NTk1IDc5OS43MzMyMzd6TTU4My40MjQwNzEgOTE0LjgyNTUwOCA1ODMuNDI0MDcxIDc5OS43MzMyMzcgNDY4LjMyNjA2IDc5OS43MzMyMzcgNDY4LjMyNjA2IDkxNC44MjU1MDggNTgzLjQyNDA3MSA5MTQuODI1NTA4ek04OTkuOTQyNTc3IDE2Ni43MjAxMTZjMC0zMS43Nzk3OTctMjUuNzY3OTA2LTU3LjU0NjY0Ny01Ny41NDc5ODItNTcuNTQ2NjQ3TDE4MC41ODEwMzQgMTA5LjE3MzQ2OGMtMzEuNzgxMDk5IDAtNTcuNTQ5MDA1IDI1Ljc2Njg1LTU3LjU0OTAwNSA1Ny41NDY2NDdsMCA0MDIuODI2NTMyTDg5OS45NDI1NzcgNTY5LjU0NjY0NyA4OTkuOTQyNTc3IDE2Ni43MjAxMTZ6TTg5OS45NDI1NzcgNjI3LjA5MzI5NSAxMjMuMDMzMDUyIDYyNy4wOTMyOTVsMCA1Ny41NDY2NDdjMCAzMS43Nzk3OTcgMjUuNzY3OTA2IDU3LjU0NTYyNCA1Ny41NDkwMDUgNTcuNTQ1NjI0bDY2MS44MTI1MzcgMGMzMS43ODEwOTkgMCA1Ny41NDc5ODItMjUuNzY2ODUgNTcuNTQ3OTgyLTU3LjU0NTYyNEw4OTkuOTQyNTc3IDYyNy4wOTMyOTV6Ii8+PC9zdmc+" vertex="1" parent="1">
          <mxGeometry x="1373.83" y="-40" width="127" height="127" as="geometry" />
        </mxCell>
        <mxCell id="A4_kuBogsplU2x2x7XkE-5" value="" style="shape=image;verticalLabelPosition=bottom;verticalAlign=top;imageAspect=0;aspect=fixed;image=data:image/svg+xml,PHN2ZyB4bWxuczp4bGluaz0iaHR0cDovL3d3dy53My5vcmcvMTk5OS94bGluayIgeG1sbnM9Imh0dHA6Ly93d3cudzMub3JnLzIwMDAvc3ZnIiBoZWlnaHQ9IjIwMCIgd2lkdGg9IjIwMCIgdmVyc2lvbj0iMS4xIiB2aWV3Qm94PSIwIDAgMTAyNCAxMDI0IiBjbGFzcz0iaWNvbiI+PGRlZnM+PHN0eWxlIHR5cGU9InRleHQvY3NzIj5AZm9udC1mYWNlIHsgZm9udC1mYW1pbHk6IGZlZWRiYWNrLWljb25mb250OyBzcmM6IHVybCgiLy9hdC5hbGljZG4uY29tL3QvZm9udF8xMDMxMTU4X3U2OXc4eWh4ZHUud29mZjI/dD0xNjMwMDMzNzU5OTQ0IikgZm9ybWF0KCJ3b2ZmMiIpLCB1cmwoIi8vYXQuYWxpY2RuLmNvbS90L2ZvbnRfMTAzMTE1OF91Njl3OHloeGR1LndvZmY/dD0xNjMwMDMzNzU5OTQ0IikgZm9ybWF0KCJ3b2ZmIiksIHVybCgiLy9hdC5hbGljZG4uY29tL3QvZm9udF8xMDMxMTU4X3U2OXc4eWh4ZHUudHRmP3Q9MTYzMDAzMzc1OTk0NCIpIGZvcm1hdCgidHJ1ZXR5cGUiKTsgfSYjeGE7PC9zdHlsZT48L2RlZnM+PHBhdGggZmlsbD0iIzRBOTE5QiIgZD0iTTg0Mi4zOTQ1OTUgNzk5LjczMzIzNyA2NDAuOTczMDc2IDc5OS43MzMyMzcgNjQwLjk3MzA3NiA5MTQuODI1NTA4bDU3LjU0OTAwNSAwYzE1LjkwMzg1MyAwIDI4Ljc3NDUwMyAxMi44NjkwOTkgMjguNzc0NTAzIDI4Ljc3MzMyNCAwIDE1LjkwMzIwMi0xMi44NzA2NDkgMjguNzcyMy0yOC43NzQ1MDMgMjguNzcyM0wzNTMuMjI4MDUgOTcyLjM3MTEzMmMtMTUuOTA0ODc3IDAtMjguNzc0NTAzLTEyLjg2OTA5OS0yOC43NzQ1MDMtMjguNzcyMyAwLTE1LjkwNDIyNSAxMi44Njk2MjYtMjguNzczMzI0IDI4Ljc3NDUwMy0yOC43NzMzMjRsNTcuNTQ5MDA1IDBMNDEwLjc3NzA1NSA3OTkuNzMzMjM3IDE4MC41ODEwMzQgNzk5LjczMzIzN2MtNjMuNTYyMTk5IDAtMTE1LjA5ODAxMS01MS41MzM3LTExNS4wOTgwMTEtMTE1LjA5MzI5NUw2NS40ODMwMjMgMTY2LjcyMDExNmMwLTYzLjU1OTU5NSA1MS41MzU4MTItMTE1LjA5MzI5NSAxMTUuMDk4MDExLTExNS4wOTMyOTVsNjYxLjgxMjUzNyAwYzYzLjU2MTE3NiAwIDExNS4wOTgwMTEgNTEuNTMzNyAxMTUuMDk4MDExIDExNS4wOTMyOTVsMCA1MTcuOTE5ODI2Qzk1Ny40OTE1ODIgNzQ4LjE5ODUxMyA5MDUuOTU1NzcgNzk5LjczMzIzNyA4NDIuMzk0NTk1IDc5OS43MzMyMzd6TTU4My40MjQwNzEgOTE0LjgyNTUwOCA1ODMuNDI0MDcxIDc5OS43MzMyMzcgNDY4LjMyNjA2IDc5OS43MzMyMzcgNDY4LjMyNjA2IDkxNC44MjU1MDggNTgzLjQyNDA3MSA5MTQuODI1NTA4ek04OTkuOTQyNTc3IDE2Ni43MjAxMTZjMC0zMS43Nzk3OTctMjUuNzY3OTA2LTU3LjU0NjY0Ny01Ny41NDc5ODItNTcuNTQ2NjQ3TDE4MC41ODEwMzQgMTA5LjE3MzQ2OGMtMzEuNzgxMDk5IDAtNTcuNTQ5MDA1IDI1Ljc2Njg1LTU3LjU0OTAwNSA1Ny41NDY2NDdsMCA0MDIuODI2NTMyTDg5OS45NDI1NzcgNTY5LjU0NjY0NyA4OTkuOTQyNTc3IDE2Ni43MjAxMTZ6TTg5OS45NDI1NzcgNjI3LjA5MzI5NSAxMjMuMDMzMDUyIDYyNy4wOTMyOTVsMCA1Ny41NDY2NDdjMCAzMS43Nzk3OTcgMjUuNzY3OTA2IDU3LjU0NTYyNCA1Ny41NDkwMDUgNTcuNTQ1NjI0bDY2MS44MTI1MzcgMGMzMS43ODEwOTkgMCA1Ny41NDc5ODItMjUuNzY2ODUgNTcuNTQ3OTgyLTU3LjU0NTYyNEw4OTkuOTQyNTc3IDYyNy4wOTMyOTV6Ii8+PC9zdmc+" vertex="1" parent="1">
          <mxGeometry x="203" y="152" width="127" height="127" as="geometry" />
        </mxCell>
        <mxCell id="A4_kuBogsplU2x2x7XkE-6" value="" style="shape=image;verticalLabelPosition=bottom;verticalAlign=top;imageAspect=0;aspect=fixed;image=data:image/svg+xml,PHN2ZyB4bWxuczp4bGluaz0iaHR0cDovL3d3dy53My5vcmcvMTk5OS94bGluayIgeG1sbnM9Imh0dHA6Ly93d3cudzMub3JnLzIwMDAvc3ZnIiBoZWlnaHQ9IjIwMCIgd2lkdGg9IjIwMCIgdmVyc2lvbj0iMS4xIiB2aWV3Qm94PSIwIDAgMTAyNCAxMDI0IiBjbGFzcz0iaWNvbiI+PGRlZnM+PHN0eWxlIHR5cGU9InRleHQvY3NzIj5AZm9udC1mYWNlIHsgZm9udC1mYW1pbHk6IGZlZWRiYWNrLWljb25mb250OyBzcmM6IHVybCgiLy9hdC5hbGljZG4uY29tL3QvZm9udF8xMDMxMTU4X3U2OXc4eWh4ZHUud29mZjI/dD0xNjMwMDMzNzU5OTQ0IikgZm9ybWF0KCJ3b2ZmMiIpLCB1cmwoIi8vYXQuYWxpY2RuLmNvbS90L2ZvbnRfMTAzMTE1OF91Njl3OHloeGR1LndvZmY/dD0xNjMwMDMzNzU5OTQ0IikgZm9ybWF0KCJ3b2ZmIiksIHVybCgiLy9hdC5hbGljZG4uY29tL3QvZm9udF8xMDMxMTU4X3U2OXc4eWh4ZHUudHRmP3Q9MTYzMDAzMzc1OTk0NCIpIGZvcm1hdCgidHJ1ZXR5cGUiKTsgfSYjeGE7PC9zdHlsZT48L2RlZnM+PHBhdGggZmlsbD0iIzRBOTE5QiIgZD0iTTg0Mi4zOTQ1OTUgNzk5LjczMzIzNyA2NDAuOTczMDc2IDc5OS43MzMyMzcgNjQwLjk3MzA3NiA5MTQuODI1NTA4bDU3LjU0OTAwNSAwYzE1LjkwMzg1MyAwIDI4Ljc3NDUwMyAxMi44NjkwOTkgMjguNzc0NTAzIDI4Ljc3MzMyNCAwIDE1LjkwMzIwMi0xMi44NzA2NDkgMjguNzcyMy0yOC43NzQ1MDMgMjguNzcyM0wzNTMuMjI4MDUgOTcyLjM3MTEzMmMtMTUuOTA0ODc3IDAtMjguNzc0NTAzLTEyLjg2OTA5OS0yOC43NzQ1MDMtMjguNzcyMyAwLTE1LjkwNDIyNSAxMi44Njk2MjYtMjguNzczMzI0IDI4Ljc3NDUwMy0yOC43NzMzMjRsNTcuNTQ5MDA1IDBMNDEwLjc3NzA1NSA3OTkuNzMzMjM3IDE4MC41ODEwMzQgNzk5LjczMzIzN2MtNjMuNTYyMTk5IDAtMTE1LjA5ODAxMS01MS41MzM3LTExNS4wOTgwMTEtMTE1LjA5MzI5NUw2NS40ODMwMjMgMTY2LjcyMDExNmMwLTYzLjU1OTU5NSA1MS41MzU4MTItMTE1LjA5MzI5NSAxMTUuMDk4MDExLTExNS4wOTMyOTVsNjYxLjgxMjUzNyAwYzYzLjU2MTE3NiAwIDExNS4wOTgwMTEgNTEuNTMzNyAxMTUuMDk4MDExIDExNS4wOTMyOTVsMCA1MTcuOTE5ODI2Qzk1Ny40OTE1ODIgNzQ4LjE5ODUxMyA5MDUuOTU1NzcgNzk5LjczMzIzNyA4NDIuMzk0NTk1IDc5OS43MzMyMzd6TTU4My40MjQwNzEgOTE0LjgyNTUwOCA1ODMuNDI0MDcxIDc5OS43MzMyMzcgNDY4LjMyNjA2IDc5OS43MzMyMzcgNDY4LjMyNjA2IDkxNC44MjU1MDggNTgzLjQyNDA3MSA5MTQuODI1NTA4ek04OTkuOTQyNTc3IDE2Ni43MjAxMTZjMC0zMS43Nzk3OTctMjUuNzY3OTA2LTU3LjU0NjY0Ny01Ny41NDc5ODItNTcuNTQ2NjQ3TDE4MC41ODEwMzQgMTA5LjE3MzQ2OGMtMzEuNzgxMDk5IDAtNTcuNTQ5MDA1IDI1Ljc2Njg1LTU3LjU0OTAwNSA1Ny41NDY2NDdsMCA0MDIuODI2NTMyTDg5OS45NDI1NzcgNTY5LjU0NjY0NyA4OTkuOTQyNTc3IDE2Ni43MjAxMTZ6TTg5OS45NDI1NzcgNjI3LjA5MzI5NSAxMjMuMDMzMDUyIDYyNy4wOTMyOTVsMCA1Ny41NDY2NDdjMCAzMS43Nzk3OTcgMjUuNzY3OTA2IDU3LjU0NTYyNCA1Ny41NDkwMDUgNTcuNTQ1NjI0bDY2MS44MTI1MzcgMGMzMS43ODEwOTkgMCA1Ny41NDc5ODItMjUuNzY2ODUgNTcuNTQ3OTgyLTU3LjU0NTYyNEw4OTkuOTQyNTc3IDYyNy4wOTMyOTV6Ii8+PC9zdmc+" vertex="1" parent="1">
          <mxGeometry x="203" y="-34" width="127" height="127" as="geometry" />
        </mxCell>
        <mxCell id="A4_kuBogsplU2x2x7XkE-7" style="edgeStyle=orthogonalEdgeStyle;rounded=1;orthogonalLoop=1;jettySize=auto;html=1;exitX=1;exitY=0.5;exitDx=0;exitDy=0;strokeWidth=10;endArrow=none;endFill=0;entryX=0.5;entryY=0;entryDx=0;entryDy=0;entryPerimeter=0;fontSize=30;" edge="1" parent="1" source="A4_kuBogsplU2x2x7XkE-6" target="A4_kuBogsplU2x2x7XkE-28">
          <mxGeometry relative="1" as="geometry">
            <mxPoint x="344.83" y="101.95000000000005" as="targetPoint" />
            <mxPoint x="335" y="21.5" as="sourcePoint" />
          </mxGeometry>
        </mxCell>
        <mxCell id="A4_kuBogsplU2x2x7XkE-8" value="&lt;font color=&quot;#4a919b&quot; style=&quot;font-size: 30px;&quot;&gt;A&lt;/font&gt;" style="text;html=1;strokeColor=none;fillColor=none;align=center;verticalAlign=middle;whiteSpace=wrap;rounded=0;fontSize=30;" vertex="1" parent="1">
          <mxGeometry x="246.50000000000003" y="2" width="40" height="20" as="geometry" />
        </mxCell>
        <mxCell id="A4_kuBogsplU2x2x7XkE-9" style="edgeStyle=orthogonalEdgeStyle;rounded=1;orthogonalLoop=1;jettySize=auto;html=1;endArrow=none;endFill=0;strokeWidth=10;fontSize=30;" edge="1" parent="1" source="A4_kuBogsplU2x2x7XkE-5">
          <mxGeometry relative="1" as="geometry">
            <mxPoint x="403.3299999999999" y="139" as="targetPoint" />
            <mxPoint x="335" y="221.49999999999977" as="sourcePoint" />
          </mxGeometry>
        </mxCell>
        <mxCell id="A4_kuBogsplU2x2x7XkE-10" value="&lt;span style=&quot;font-size: 30px;&quot;&gt;&lt;font color=&quot;#4a919b&quot;&gt;B&lt;/font&gt;&lt;br style=&quot;font-size: 30px;&quot;&gt;&lt;/span&gt;" style="text;html=1;strokeColor=none;fillColor=none;align=center;verticalAlign=middle;whiteSpace=wrap;rounded=0;fontSize=30;" vertex="1" parent="1">
          <mxGeometry x="246.49999999999997" y="192" width="40" height="20" as="geometry" />
        </mxCell>
        <mxCell id="A4_kuBogsplU2x2x7XkE-11" value="&lt;span style=&quot;font-size: 30px&quot;&gt;交换机&lt;/span&gt;" style="text;html=1;strokeColor=none;fillColor=none;align=center;verticalAlign=middle;whiteSpace=wrap;rounded=0;fontSize=30;" vertex="1" parent="1">
          <mxGeometry x="235" y="103.5" width="100" height="31" as="geometry" />
        </mxCell>
        <mxCell id="A4_kuBogsplU2x2x7XkE-12" value="目的IP" style="rounded=0;whiteSpace=wrap;html=1;strokeColor=#376B73;strokeWidth=2;fontSize=30;fillColor=#67AB9F;" vertex="1" parent="1">
          <mxGeometry x="479" y="-370" width="227" height="60" as="geometry" />
        </mxCell>
        <mxCell id="A4_kuBogsplU2x2x7XkE-13" value="子网掩码" style="rounded=0;whiteSpace=wrap;html=1;strokeColor=#376B73;strokeWidth=2;fontSize=30;fillColor=#67AB9F;" vertex="1" parent="1">
          <mxGeometry x="706" y="-370" width="206.35" height="60" as="geometry" />
        </mxCell>
        <mxCell id="A4_kuBogsplU2x2x7XkE-14" value="网关" style="rounded=0;whiteSpace=wrap;html=1;strokeColor=#376B73;strokeWidth=2;fontSize=30;fillColor=#67AB9F;" vertex="1" parent="1">
          <mxGeometry x="910.02" y="-370" width="150" height="60" as="geometry" />
        </mxCell>
        <mxCell id="A4_kuBogsplU2x2x7XkE-15" value="192.168.0.0" style="rounded=0;whiteSpace=wrap;html=1;strokeColor=#376B73;strokeWidth=2;fontSize=30;fillColor=#FFE599;" vertex="1" parent="1">
          <mxGeometry x="479" y="-310" width="227" height="60" as="geometry" />
        </mxCell>
        <mxCell id="A4_kuBogsplU2x2x7XkE-16" value="255.255.255.0" style="rounded=0;whiteSpace=wrap;html=1;strokeColor=#376B73;strokeWidth=2;fontSize=30;fillColor=#FFE599;" vertex="1" parent="1">
          <mxGeometry x="706" y="-310" width="206.35" height="60" as="geometry" />
        </mxCell>
        <mxCell id="A4_kuBogsplU2x2x7XkE-17" value="——" style="rounded=0;whiteSpace=wrap;html=1;strokeColor=#376B73;strokeWidth=2;fontSize=30;fillColor=#FFE599;" vertex="1" parent="1">
          <mxGeometry x="910.02" y="-310" width="150" height="60" as="geometry" />
        </mxCell>
        <mxCell id="A4_kuBogsplU2x2x7XkE-18" value="192.168.1.0" style="rounded=0;whiteSpace=wrap;html=1;strokeColor=#376B73;strokeWidth=2;fontSize=30;fillColor=#FFE599;" vertex="1" parent="1">
          <mxGeometry x="479" y="-250" width="227" height="60" as="geometry" />
        </mxCell>
        <mxCell id="A4_kuBogsplU2x2x7XkE-19" value="255.255.255.0" style="rounded=0;whiteSpace=wrap;html=1;strokeColor=#376B73;strokeWidth=2;fontSize=30;fillColor=#FFE599;" vertex="1" parent="1">
          <mxGeometry x="706" y="-250" width="206.35" height="60" as="geometry" />
        </mxCell>
        <mxCell id="A4_kuBogsplU2x2x7XkE-20" value="——" style="rounded=0;whiteSpace=wrap;html=1;strokeColor=#376B73;strokeWidth=2;fontSize=30;fillColor=#FFE599;" vertex="1" parent="1">
          <mxGeometry x="910.02" y="-250" width="150" height="60" as="geometry" />
        </mxCell>
        <mxCell id="A4_kuBogsplU2x2x7XkE-21" value="0.0.0.0" style="rounded=0;whiteSpace=wrap;html=1;strokeColor=#376B73;strokeWidth=2;fontSize=30;fillColor=#FFE599;" vertex="1" parent="1">
          <mxGeometry x="479" y="-190" width="227" height="60" as="geometry" />
        </mxCell>
        <mxCell id="A4_kuBogsplU2x2x7XkE-22" value="0.0.0.0" style="rounded=0;whiteSpace=wrap;html=1;strokeColor=#376B73;strokeWidth=2;fontSize=30;fillColor=#FFE599;" vertex="1" parent="1">
          <mxGeometry x="706" y="-190" width="206.35" height="60" as="geometry" />
        </mxCell>
        <mxCell id="A4_kuBogsplU2x2x7XkE-23" value="192.0.2.1" style="rounded=0;whiteSpace=wrap;html=1;strokeColor=#376B73;strokeWidth=2;fontSize=30;fillColor=#FFE599;" vertex="1" parent="1">
          <mxGeometry x="910.02" y="-190" width="150" height="60" as="geometry" />
        </mxCell>
        <mxCell id="A4_kuBogsplU2x2x7XkE-24" style="edgeStyle=orthogonalEdgeStyle;rounded=0;orthogonalLoop=1;jettySize=auto;html=1;exitX=1;exitY=0.5;exitDx=0;exitDy=0;exitPerimeter=0;endArrow=none;endFill=0;strokeWidth=10;strokeColor=#4A919B;" edge="1" parent="1" source="A4_kuBogsplU2x2x7XkE-26" target="A4_kuBogsplU2x2x7XkE-35">
          <mxGeometry relative="1" as="geometry">
            <mxPoint x="1050.0000000000005" y="119" as="sourcePoint" />
          </mxGeometry>
        </mxCell>
        <mxCell id="A4_kuBogsplU2x2x7XkE-25" style="edgeStyle=orthogonalEdgeStyle;rounded=0;orthogonalLoop=1;jettySize=auto;html=1;exitX=0.5;exitY=1;exitDx=0;exitDy=0;exitPerimeter=0;endArrow=none;endFill=0;strokeWidth=10;fillColor=#5A6EAB;fontSize=30;strokeColor=#F19C99;" edge="1" parent="1" source="A4_kuBogsplU2x2x7XkE-26" target="A4_kuBogsplU2x2x7XkE-44">
          <mxGeometry relative="1" as="geometry" />
        </mxCell>
        <mxCell id="A4_kuBogsplU2x2x7XkE-26" value="" style="fontColor=#0066CC;verticalAlign=top;verticalLabelPosition=bottom;labelPosition=center;align=center;html=1;outlineConnect=0;gradientColor=none;gradientDirection=north;strokeWidth=2;shape=mxgraph.networks.router;fillColor=#4A919B;fontSize=30;" vertex="1" parent="1">
          <mxGeometry x="770" y="99" width="133.33" height="40" as="geometry" />
        </mxCell>
        <mxCell id="A4_kuBogsplU2x2x7XkE-27" style="edgeStyle=orthogonalEdgeStyle;rounded=0;orthogonalLoop=1;jettySize=auto;html=1;exitX=1;exitY=0.5;exitDx=0;exitDy=0;exitPerimeter=0;endArrow=none;endFill=0;strokeWidth=10;" edge="1" parent="1" source="A4_kuBogsplU2x2x7XkE-28" target="A4_kuBogsplU2x2x7XkE-26">
          <mxGeometry relative="1" as="geometry" />
        </mxCell>
        <mxCell id="A4_kuBogsplU2x2x7XkE-28" value="" style="fontColor=#0066CC;verticalAlign=top;verticalLabelPosition=bottom;labelPosition=center;align=center;html=1;outlineConnect=0;gradientColor=none;gradientDirection=north;strokeWidth=2;shape=mxgraph.networks.switch;fillColor=#538AAF;" vertex="1" parent="1">
          <mxGeometry x="334.99999999999994" y="99" width="133.33" height="40" as="geometry" />
        </mxCell>
        <mxCell id="A4_kuBogsplU2x2x7XkE-29" value="&lt;span style=&quot;font-size: 30px&quot;&gt;路由器&lt;/span&gt;" style="text;html=1;strokeColor=none;fillColor=none;align=center;verticalAlign=middle;whiteSpace=wrap;rounded=0;fontSize=30;" vertex="1" parent="1">
          <mxGeometry x="786.66" y="62" width="100" height="31" as="geometry" />
        </mxCell>
        <mxCell id="A4_kuBogsplU2x2x7XkE-30" style="edgeStyle=orthogonalEdgeStyle;rounded=1;orthogonalLoop=1;jettySize=auto;html=1;strokeWidth=10;endArrow=none;endFill=0;entryX=0.5;entryY=0;entryDx=0;entryDy=0;entryPerimeter=0;fontSize=30;" edge="1" parent="1" source="A4_kuBogsplU2x2x7XkE-4" target="A4_kuBogsplU2x2x7XkE-35">
          <mxGeometry relative="1" as="geometry">
            <mxPoint x="1228.83" y="101.95000000000005" as="targetPoint" />
            <mxPoint x="1352.33" y="21.5" as="sourcePoint" />
          </mxGeometry>
        </mxCell>
        <mxCell id="A4_kuBogsplU2x2x7XkE-31" value="&lt;font color=&quot;#4a919b&quot; style=&quot;font-size: 30px;&quot;&gt;C&lt;/font&gt;" style="text;html=1;strokeColor=none;fillColor=none;align=center;verticalAlign=middle;whiteSpace=wrap;rounded=0;fontSize=30;" vertex="1" parent="1">
          <mxGeometry x="1417.33" width="40" height="20" as="geometry" />
        </mxCell>
        <mxCell id="A4_kuBogsplU2x2x7XkE-32" style="edgeStyle=orthogonalEdgeStyle;rounded=1;orthogonalLoop=1;jettySize=auto;html=1;endArrow=none;endFill=0;strokeWidth=10;fontSize=30;" edge="1" parent="1" source="A4_kuBogsplU2x2x7XkE-3">
          <mxGeometry relative="1" as="geometry">
            <mxPoint x="1287.3300000000004" y="139" as="targetPoint" />
            <mxPoint x="1357" y="221" as="sourcePoint" />
          </mxGeometry>
        </mxCell>
        <mxCell id="A4_kuBogsplU2x2x7XkE-33" value="&lt;span style=&quot;font-size: 30px;&quot;&gt;&lt;font color=&quot;#4a919b&quot;&gt;D&lt;/font&gt;&lt;br style=&quot;font-size: 30px;&quot;&gt;&lt;/span&gt;" style="text;html=1;strokeColor=none;fillColor=none;align=center;verticalAlign=middle;whiteSpace=wrap;rounded=0;fontSize=30;" vertex="1" parent="1">
          <mxGeometry x="1417.33" y="192" width="40" height="20" as="geometry" />
        </mxCell>
        <mxCell id="A4_kuBogsplU2x2x7XkE-34" value="&lt;span style=&quot;font-size: 30px&quot;&gt;交换机&lt;/span&gt;" style="text;html=1;strokeColor=none;fillColor=none;align=center;verticalAlign=middle;whiteSpace=wrap;rounded=0;fontSize=30;" vertex="1" parent="1">
          <mxGeometry x="1364" y="103.5" width="100" height="31" as="geometry" />
        </mxCell>
        <mxCell id="A4_kuBogsplU2x2x7XkE-35" value="" style="fontColor=#0066CC;verticalAlign=top;verticalLabelPosition=bottom;labelPosition=center;align=center;html=1;outlineConnect=0;gradientColor=none;gradientDirection=north;strokeWidth=2;shape=mxgraph.networks.switch;fillColor=#538AAF;" vertex="1" parent="1">
          <mxGeometry x="1219" y="99" width="133.33" height="40" as="geometry" />
        </mxCell>
        <mxCell id="A4_kuBogsplU2x2x7XkE-36" value="&lt;font style=&quot;font-size: 30px;&quot;&gt;e2:&lt;/font&gt;&lt;span style=&quot;font-size: 30px;&quot;&gt;192.168.1.11/24&lt;/span&gt;" style="text;html=1;strokeColor=none;fillColor=none;align=center;verticalAlign=middle;whiteSpace=wrap;rounded=0;fontSize=30;" vertex="1" parent="1">
          <mxGeometry x="910.0200000000001" y="42" width="186.67" height="20" as="geometry" />
        </mxCell>
        <mxCell id="A4_kuBogsplU2x2x7XkE-37" value="&lt;font style=&quot;font-size: 30px;&quot;&gt;192.168.0.105/24&lt;/font&gt;" style="text;html=1;strokeColor=none;fillColor=none;align=center;verticalAlign=middle;whiteSpace=wrap;rounded=0;fontSize=30;" vertex="1" parent="1">
          <mxGeometry x="211.85" y="-60" width="169" height="20" as="geometry" />
        </mxCell>
        <mxCell id="A4_kuBogsplU2x2x7XkE-38" value="&lt;font style=&quot;font-size: 30px;&quot;&gt;192.168.0.106&lt;/font&gt;&lt;span style=&quot;font-size: 30px;&quot;&gt;/24&lt;/span&gt;" style="text;html=1;strokeColor=none;fillColor=none;align=center;verticalAlign=middle;whiteSpace=wrap;rounded=0;fontSize=30;" vertex="1" parent="1">
          <mxGeometry x="221.85000000000002" y="290" width="179" height="20" as="geometry" />
        </mxCell>
        <mxCell id="A4_kuBogsplU2x2x7XkE-39" value="&lt;font style=&quot;font-size: 30px;&quot;&gt;192.168.1.10/24&lt;/font&gt;" style="text;html=1;strokeColor=none;fillColor=none;align=center;verticalAlign=middle;whiteSpace=wrap;rounded=0;fontSize=30;" vertex="1" parent="1">
          <mxGeometry x="1352.33" y="-60" width="205" height="20" as="geometry" />
        </mxCell>
        <mxCell id="A4_kuBogsplU2x2x7XkE-40" value="&lt;font style=&quot;font-size: 30px;&quot;&gt;192.168.1.11/24&lt;/font&gt;" style="text;html=1;strokeColor=none;fillColor=none;align=center;verticalAlign=middle;whiteSpace=wrap;rounded=0;fontSize=30;" vertex="1" parent="1">
          <mxGeometry x="1352.33" y="290" width="205" height="20" as="geometry" />
        </mxCell>
        <mxCell id="A4_kuBogsplU2x2x7XkE-41" value="&lt;font style=&quot;font-size: 30px;&quot;&gt;e1:&lt;/font&gt;&lt;span style=&quot;font-size: 30px;&quot;&gt;192.0.2.2/24&lt;/span&gt;" style="text;html=1;strokeColor=none;fillColor=none;align=center;verticalAlign=middle;whiteSpace=wrap;rounded=0;fontSize=30;" vertex="1" parent="1">
          <mxGeometry x="860" y="150" width="186.67" height="20" as="geometry" />
        </mxCell>
        <mxCell id="A4_kuBogsplU2x2x7XkE-42" value="&lt;span style=&quot;font-size: 30px;&quot;&gt;192.168.0.107/24 :&lt;/span&gt;&lt;span style=&quot;font-size: 30px;&quot;&gt;e3&lt;/span&gt;" style="text;html=1;strokeColor=none;fillColor=none;align=center;verticalAlign=middle;whiteSpace=wrap;rounded=0;fontSize=30;" vertex="1" parent="1">
          <mxGeometry x="506.85" y="42" width="303.15" height="20" as="geometry" />
        </mxCell>
        <mxCell id="A4_kuBogsplU2x2x7XkE-43" style="edgeStyle=orthogonalEdgeStyle;rounded=0;orthogonalLoop=1;jettySize=auto;html=1;exitX=0.5;exitY=1;exitDx=0;exitDy=0;exitPerimeter=0;endArrow=none;endFill=0;strokeColor=#F19C99;strokeWidth=10;fillColor=#5A6EAB;" edge="1" parent="1" source="A4_kuBogsplU2x2x7XkE-44" target="A4_kuBogsplU2x2x7XkE-49">
          <mxGeometry relative="1" as="geometry" />
        </mxCell>
        <mxCell id="A4_kuBogsplU2x2x7XkE-44" value="" style="fontColor=#0066CC;verticalAlign=top;verticalLabelPosition=bottom;labelPosition=center;align=center;html=1;outlineConnect=0;gradientColor=none;gradientDirection=north;strokeWidth=2;shape=mxgraph.networks.router;fillColor=#4A919B;" vertex="1" parent="1">
          <mxGeometry x="769.99" y="252" width="133.33" height="40" as="geometry" />
        </mxCell>
        <mxCell id="A4_kuBogsplU2x2x7XkE-45" value="&lt;span style=&quot;font-size: 30px&quot;&gt;其他路由器&lt;/span&gt;" style="text;html=1;strokeColor=none;fillColor=none;align=center;verticalAlign=middle;whiteSpace=wrap;rounded=0;fontSize=30;" vertex="1" parent="1">
          <mxGeometry x="650" y="220" width="160" height="26" as="geometry" />
        </mxCell>
        <mxCell id="A4_kuBogsplU2x2x7XkE-46" value="&lt;font style=&quot;font-size: 30px;&quot;&gt;f2:&amp;nbsp;&lt;/font&gt;&lt;span style=&quot;font-size: 30px;&quot;&gt;192.0.2.1/24&lt;/span&gt;" style="text;html=1;strokeColor=none;fillColor=none;align=center;verticalAlign=middle;whiteSpace=wrap;rounded=0;fontSize=30;" vertex="1" parent="1">
          <mxGeometry x="860" y="226" width="186.67" height="20" as="geometry" />
        </mxCell>
        <mxCell id="A4_kuBogsplU2x2x7XkE-47" style="edgeStyle=orthogonalEdgeStyle;rounded=1;orthogonalLoop=1;jettySize=auto;html=1;exitX=0.5;exitY=1;exitDx=0;exitDy=0;exitPerimeter=0;entryX=0.5;entryY=0;entryDx=0;entryDy=0;entryPerimeter=0;endArrow=none;endFill=0;strokeWidth=10;" edge="1" parent="1" source="A4_kuBogsplU2x2x7XkE-49" target="A4_kuBogsplU2x2x7XkE-58">
          <mxGeometry relative="1" as="geometry" />
        </mxCell>
        <mxCell id="A4_kuBogsplU2x2x7XkE-48" value="" style="edgeStyle=orthogonalEdgeStyle;rounded=1;orthogonalLoop=1;jettySize=auto;html=1;strokeColor=#F19C99;strokeWidth=10;fontColor=#4A919B;endArrow=none;endFill=0;" edge="1" parent="1" source="A4_kuBogsplU2x2x7XkE-49" target="A4_kuBogsplU2x2x7XkE-58">
          <mxGeometry relative="1" as="geometry" />
        </mxCell>
        <mxCell id="A4_kuBogsplU2x2x7XkE-49" value="&lt;font style=&quot;font-size: 30px&quot;&gt;互联网&lt;/font&gt;" style="html=1;outlineConnect=0;gradientColor=none;gradientDirection=north;strokeWidth=2;shape=mxgraph.networks.cloud;fontColor=#ffffff;strokeColor=none;fillColor=#4A919B;" vertex="1" parent="1">
          <mxGeometry x="743.34" y="360" width="186.66" height="110" as="geometry" />
        </mxCell>
        <mxCell id="A4_kuBogsplU2x2x7XkE-50" value="出口" style="rounded=0;whiteSpace=wrap;html=1;strokeColor=#376B73;strokeWidth=2;fontSize=30;fillColor=#67AB9F;" vertex="1" parent="1">
          <mxGeometry x="1060.02" y="-370" width="150" height="60" as="geometry" />
        </mxCell>
        <mxCell id="A4_kuBogsplU2x2x7XkE-51" value="e3" style="rounded=0;whiteSpace=wrap;html=1;strokeColor=#376B73;strokeWidth=2;fontSize=30;fillColor=#FFE599;" vertex="1" parent="1">
          <mxGeometry x="1060.02" y="-310" width="150" height="60" as="geometry" />
        </mxCell>
        <mxCell id="A4_kuBogsplU2x2x7XkE-52" value="&lt;font color=&quot;#4a919b&quot;&gt;e2&lt;/font&gt;" style="rounded=0;whiteSpace=wrap;html=1;strokeColor=#376B73;strokeWidth=2;fontSize=30;fillColor=#FFE599;" vertex="1" parent="1">
          <mxGeometry x="1060.02" y="-250" width="150" height="60" as="geometry" />
        </mxCell>
        <mxCell id="A4_kuBogsplU2x2x7XkE-53" value="e1" style="rounded=0;whiteSpace=wrap;html=1;strokeColor=#376B73;strokeWidth=2;fontSize=30;fillColor=#FFE599;" vertex="1" parent="1">
          <mxGeometry x="1060.02" y="-190" width="150" height="60" as="geometry" />
        </mxCell>
        <mxCell id="A4_kuBogsplU2x2x7XkE-54" value="" style="shape=flexArrow;endArrow=classic;html=1;strokeWidth=10;fillColor=#4A919B;strokeColor=#4A919B;endWidth=70;endSize=12;width=28;" edge="1" parent="1">
          <mxGeometry width="50" height="50" relative="1" as="geometry">
            <mxPoint x="836" y="25" as="sourcePoint" />
            <mxPoint x="835.6700000000001" y="-95" as="targetPoint" />
          </mxGeometry>
        </mxCell>
        <mxCell id="A4_kuBogsplU2x2x7XkE-55" value="&lt;font style=&quot;font-size: 40px&quot;&gt;192.168.0.0&lt;/font&gt;" style="text;html=1;strokeColor=none;fillColor=none;align=center;verticalAlign=middle;whiteSpace=wrap;rounded=0;fontSize=30;" vertex="1" parent="1">
          <mxGeometry x="161" y="-144" width="169" height="20" as="geometry" />
        </mxCell>
        <mxCell id="A4_kuBogsplU2x2x7XkE-56" value="&lt;font style=&quot;font-size: 40px&quot;&gt;192.168.1.0&lt;/font&gt;" style="text;html=1;strokeColor=none;fillColor=none;align=center;verticalAlign=middle;whiteSpace=wrap;rounded=0;fontSize=30;" vertex="1" parent="1">
          <mxGeometry x="1364" y="-150" width="169" height="20" as="geometry" />
        </mxCell>
        <mxCell id="A4_kuBogsplU2x2x7XkE-57" style="edgeStyle=orthogonalEdgeStyle;rounded=1;orthogonalLoop=1;jettySize=auto;html=1;exitX=1;exitY=0.5;exitDx=0;exitDy=0;exitPerimeter=0;strokeColor=#F19C99;strokeWidth=10;fontColor=#4A919B;endArrow=none;endFill=0;" edge="1" parent="1" source="A4_kuBogsplU2x2x7XkE-58">
          <mxGeometry relative="1" as="geometry">
            <mxPoint x="1232" y="143" as="targetPoint" />
          </mxGeometry>
        </mxCell>
        <mxCell id="A4_kuBogsplU2x2x7XkE-58" value="" style="fontColor=#0066CC;verticalAlign=top;verticalLabelPosition=bottom;labelPosition=center;align=center;html=1;outlineConnect=0;gradientColor=none;gradientDirection=north;strokeWidth=2;shape=mxgraph.networks.router;fillColor=#4A919B;" vertex="1" parent="1">
          <mxGeometry x="769.99" y="550" width="133.33" height="40" as="geometry" />
        </mxCell>
      </root>
    </mxGraphModel>
  </diagram>
</mxfile>
